<svg width="500" height="500" viewBox="0 0 500 500" fill="none" xmlns="http://www.w3.org/2000/svg">
<g clip-path="url(#clip0_1025_3882)">
<path d="M550 -50H-50V550H550V-50Z" fill="white"/>
<path d="M550 -50H-50V550H550V-50Z" fill="#F8F6F0"/>
<path d="M355.229 351.016C365.865 332.427 371.938 310.901 371.938 287.964C371.938 280.38 371.271 272.953 370 265.734C364.849 294.354 349.635 319.484 328.141 337.307C315.703 347.62 297.193 345.526 287.464 332.63L269.297 308.562C266.276 304.562 261.552 302.208 256.536 302.208H187.328C187.313 302.208 187.297 302.208 187.281 302.208C182.557 302.245 179.5 307.224 181.62 311.453L184.375 316.938C189.495 327.141 199.578 333.922 210.958 334.818L215.057 335.141L233.005 336.552C238.083 336.953 242.667 339.766 245.323 344.115L253.464 357.422L258.021 364.88L283.552 406.635C284.005 407.385 284.578 408.036 285.224 408.578C287.094 410.141 289.63 410.797 292.089 410.188C292.109 410.182 292.125 410.177 292.146 410.177C358.37 393.828 409.385 338.896 419.979 270.594C410.677 305.635 386.802 334.74 355.229 351.016Z" fill="#5A73F4"/>
<mask id="mask0_1025_3882" style="mask-type:luminance" maskUnits="userSpaceOnUse" x="80" y="72" width="314" height="355">
<path d="M80.0312 72.9478H393.333V426.948H80.0312V72.9478Z" fill="white"/>
</mask>
<g mask="url(#mask0_1025_3882)">
<path d="M240.443 347.099C238.745 344.323 235.797 342.515 232.557 342.26L210.51 340.521C197.219 339.474 185.245 331.427 179.26 319.51L176.651 314.312C174.797 310.62 174.755 306.203 176.802 302.609C178.917 298.901 182.724 296.625 186.948 296.489L187.328 296.484H209.484C202.26 285.078 189.245 278.666 175.771 279.927L152.745 282.073C142.88 283 134.021 276.198 132.203 266.463C130.859 259.245 130.151 251.802 130.151 244.192C130.151 205.614 148.219 171.26 176.354 149.125C148.484 167.479 126.792 194.448 115.089 226.255C125.63 149.64 191.349 90.63 270.859 90.63C320.078 90.63 364.01 113.245 392.844 148.646C362.198 103.26 310.344 73.38 251.5 73.2237C157.302 72.9789 80.2187 149.734 80.0781 243.932C80.026 277.094 89.4323 308.052 105.724 334.276C106.068 334.828 106.406 335.385 106.76 335.937L129.578 332.068C139.776 330.344 148.167 340.198 144.698 349.943C144.604 350.208 144.542 350.354 144.542 350.354C159.234 355.698 156.755 370.01 156.755 370.01C169.729 375.927 164.385 388.135 164.385 388.135C168.974 390.036 170.583 393.745 170.995 394.958C171.208 395.573 171.443 396.187 171.682 396.797L180.557 419.567C182.083 423.484 186.766 426.687 190.969 426.687C196.271 426.687 199.943 421.385 198.078 416.422L193.922 405.37L188.385 390.625C188 389.594 188.703 388.463 189.823 388.385C190.552 388.328 191.224 388.807 191.505 389.489L198.786 407.015L204.172 419.984C206.031 424.453 210.927 427.015 215.568 425.661C221.135 424.036 223.901 417.807 221.391 412.588C221.385 412.583 221.385 412.578 221.38 412.573L208.052 385.036C207.479 383.859 208.26 382.469 209.568 382.344C210.323 382.271 211.052 382.661 211.411 383.328L227.63 413.557L229.641 417.302C231.625 421 235.969 422.927 239.948 421.609C243.047 420.583 245.109 417.995 245.656 415.067C245.99 413.281 245.76 411.37 244.854 409.609L232.156 385.01C231.599 383.927 232.01 382.536 233.135 382.073C234.135 381.656 235.25 382.083 235.74 383.005L250.083 410.104C251.245 412.291 252.974 413.989 254.99 415.114C258.354 416.979 262.521 417.239 266.245 415.484C266.964 415.151 267.62 414.739 268.234 414.297C273.323 410.599 274.917 403.489 271.505 397.906L240.443 347.099Z" fill="#FF964F"/>
</g>
<path d="M116.417 357.375L134.37 354.396C139.755 353.5 143.396 348.412 142.505 343.026C141.609 337.636 136.521 333.995 131.13 334.886L113.182 337.865C107.797 338.761 104.151 343.849 105.047 349.24C105.937 354.625 111.031 358.266 116.417 357.375Z" fill="#5A73F4"/>
<path d="M151.661 362.484C150.771 357.099 145.677 353.458 140.292 354.354L115.792 359.037C110.401 359.927 106.76 365.021 107.656 370.406C108.547 375.792 113.641 379.438 119.026 378.542L143.526 373.859C148.917 372.964 152.557 367.87 151.661 362.484Z" fill="#5A73F4"/>
<path d="M159.932 382.838C159.036 377.453 153.948 373.812 148.563 374.703L130.609 377.682C125.224 378.573 121.578 383.666 122.474 389.052C123.37 394.442 128.458 398.083 133.844 397.187L151.797 394.213C157.182 393.317 160.828 388.229 159.932 382.838Z" fill="#5A73F4"/>
<path d="M161.026 393.787L146.286 396.136C140.896 397.026 137.255 402.115 138.151 407.505C139.042 412.891 144.135 416.532 149.521 415.641L164.266 413.292C169.651 412.401 173.292 407.308 172.401 401.922C171.505 396.537 166.411 392.891 161.026 393.787Z" fill="#5A73F4"/>
</g>
<defs>
<clipPath id="clip0_1025_3882">
<rect width="500" height="500" fill="white"/>
</clipPath>
</defs>
</svg>
