<svg width="93" height="41" viewBox="0 0 93 41" fill="none" xmlns="http://www.w3.org/2000/svg">
<rect x="60.541" y="5.5" width="30" height="30" rx="15" fill="#FF8E01"/>
<path fill-rule="evenodd" clip-rule="evenodd" d="M82.2908 11.823H68.7908C67.9623 11.823 67.2908 12.4946 67.2908 13.323V29.7501C67.2908 30.5785 67.9623 31.2501 68.7908 31.2501H82.2908C83.1192 31.2501 83.7908 30.5785 83.7908 29.7501V13.323C83.7908 12.4946 83.1192 11.823 82.2908 11.823ZM68.7908 11.323C67.6862 11.323 66.7908 12.2184 66.7908 13.323V29.7501C66.7908 30.8547 67.6862 31.7501 68.7908 31.7501H82.2908C83.3953 31.7501 84.2908 30.8547 84.2908 29.7501V13.323C84.2908 12.2184 83.3953 11.323 82.2908 11.323H68.7908Z" fill="#FAF9F5"/>
<path d="M73.7908 18.2258L80.7908 18.2258" stroke="#FAF9F5" stroke-width="0.5" stroke-linecap="round"/>
<path d="M73.7908 22.7339L80.7908 22.7339" stroke="#FAF9F5" stroke-width="0.5" stroke-linecap="round"/>
<path d="M73.7908 27.2419L77.56 27.2419" stroke="#FAF9F5" stroke-width="0.5" stroke-linecap="round"/>
<rect x="70.4445" y="9.25" width="10.5577" height="4.99106" rx="1" fill="#FF8E01" stroke="#FAF9F5" stroke-width="0.5"/>
<ellipse cx="71.2379" cy="18.2418" rx="1.14754" ry="1.12903" fill="#FF8E01" stroke="#FAF9F5" stroke-width="0.5"/>
<ellipse cx="71.2379" cy="22.7582" rx="1.14754" ry="1.12903" fill="#FF8E01" stroke="#FAF9F5" stroke-width="0.5"/>
<ellipse cx="71.2379" cy="27.2743" rx="1.14754" ry="1.12903" fill="#FF8E01" stroke="#FAF9F5" stroke-width="0.5"/>
<path d="M20.834 17.5H19.832V9.8125H17.1367V8.93359H23.5176V9.8125H20.834V17.5ZM27.0684 10.9727C27.834 10.9727 28.4023 11.1445 28.7734 11.4883C29.1445 11.832 29.3301 12.3809 29.3301 13.1348V17.5H28.6211L28.4336 16.5508H28.3867C28.207 16.7852 28.0195 16.9824 27.8242 17.1426C27.6289 17.2988 27.4023 17.418 27.1445 17.5C26.8906 17.5781 26.5781 17.6172 26.207 17.6172C25.8164 17.6172 25.4688 17.5488 25.1641 17.4121C24.8633 17.2754 24.625 17.0684 24.4492 16.791C24.2773 16.5137 24.1914 16.1621 24.1914 15.7363C24.1914 15.0957 24.4453 14.6035 24.9531 14.2598C25.4609 13.916 26.2344 13.7285 27.2734 13.6973L28.3809 13.6504V13.2578C28.3809 12.7031 28.2617 12.3145 28.0234 12.0918C27.7852 11.8691 27.4492 11.7578 27.0156 11.7578C26.6797 11.7578 26.3594 11.8066 26.0547 11.9043C25.75 12.002 25.4609 12.1172 25.1875 12.25L24.8887 11.5117C25.1777 11.3633 25.5098 11.2363 25.8848 11.1309C26.2598 11.0254 26.6543 10.9727 27.0684 10.9727ZM28.3691 14.3359L27.3906 14.377C26.5898 14.4082 26.0254 14.5391 25.6973 14.7695C25.3691 15 25.2051 15.3262 25.2051 15.748C25.2051 16.1152 25.3164 16.3867 25.5391 16.5625C25.7617 16.7383 26.0566 16.8262 26.4238 16.8262C26.9941 16.8262 27.4609 16.668 27.8242 16.3516C28.1875 16.0352 28.3691 15.5605 28.3691 14.9277V14.3359ZM35.4883 15.7422C35.4883 16.1523 35.3848 16.498 35.1777 16.7793C34.9746 17.0566 34.6816 17.2656 34.2988 17.4062C33.9199 17.5469 33.4668 17.6172 32.9395 17.6172C32.4902 17.6172 32.1016 17.582 31.7734 17.5117C31.4453 17.4414 31.1582 17.3418 30.9121 17.2129V16.3164C31.1738 16.4453 31.4863 16.5625 31.8496 16.668C32.2129 16.7734 32.584 16.8262 32.9629 16.8262C33.5176 16.8262 33.9199 16.7363 34.1699 16.5566C34.4199 16.377 34.5449 16.1328 34.5449 15.8242C34.5449 15.6484 34.4941 15.4941 34.3926 15.3613C34.2949 15.2246 34.1289 15.0938 33.8945 14.9688C33.6602 14.8398 33.3359 14.6992 32.9219 14.5469C32.5117 14.3906 32.1562 14.2363 31.8555 14.084C31.5586 13.9277 31.3281 13.7383 31.1641 13.5156C31.0039 13.293 30.9238 13.0039 30.9238 12.6484C30.9238 12.1055 31.1426 11.6895 31.5801 11.4004C32.0215 11.1074 32.5996 10.9609 33.3145 10.9609C33.7012 10.9609 34.0625 11 34.3984 11.0781C34.7383 11.1523 35.0547 11.2539 35.3477 11.3828L35.0195 12.1621C34.7539 12.0488 34.4707 11.9531 34.1699 11.875C33.8691 11.7969 33.5625 11.7578 33.25 11.7578C32.8008 11.7578 32.4551 11.832 32.2129 11.9805C31.9746 12.1289 31.8555 12.332 31.8555 12.5898C31.8555 12.7891 31.9102 12.9531 32.0195 13.082C32.1328 13.2109 32.3125 13.332 32.5586 13.4453C32.8047 13.5586 33.1289 13.6914 33.5312 13.8438C33.9336 13.9922 34.2812 14.1465 34.5742 14.3066C34.8672 14.4629 35.0918 14.6543 35.248 14.8809C35.4082 15.1035 35.4883 15.3906 35.4883 15.7422ZM38.0195 8.38281V13.1172C38.0195 13.2734 38.0137 13.4648 38.002 13.6914C37.9902 13.9141 37.9805 14.1113 37.9727 14.2832H38.0137C38.0957 14.1816 38.2148 14.0312 38.3711 13.832C38.5312 13.6328 38.666 13.4727 38.7754 13.3516L40.9082 11.0781H42.0508L39.4668 13.8203L42.2383 17.5H41.0664L38.7988 14.459L38.0195 15.1738V17.5H37.0527V8.38281H38.0195ZM47.5117 15.7422C47.5117 16.1523 47.4082 16.498 47.2012 16.7793C46.998 17.0566 46.7051 17.2656 46.3223 17.4062C45.9434 17.5469 45.4902 17.6172 44.9629 17.6172C44.5137 17.6172 44.125 17.582 43.7969 17.5117C43.4688 17.4414 43.1816 17.3418 42.9355 17.2129V16.3164C43.1973 16.4453 43.5098 16.5625 43.873 16.668C44.2363 16.7734 44.6074 16.8262 44.9863 16.8262C45.541 16.8262 45.9434 16.7363 46.1934 16.5566C46.4434 16.377 46.5684 16.1328 46.5684 15.8242C46.5684 15.6484 46.5176 15.4941 46.416 15.3613C46.3184 15.2246 46.1523 15.0938 45.918 14.9688C45.6836 14.8398 45.3594 14.6992 44.9453 14.5469C44.5352 14.3906 44.1797 14.2363 43.8789 14.084C43.582 13.9277 43.3516 13.7383 43.1875 13.5156C43.0273 13.293 42.9473 13.0039 42.9473 12.6484C42.9473 12.1055 43.166 11.6895 43.6035 11.4004C44.0449 11.1074 44.623 10.9609 45.3379 10.9609C45.7246 10.9609 46.0859 11 46.4219 11.0781C46.7617 11.1523 47.0781 11.2539 47.3711 11.3828L47.043 12.1621C46.7773 12.0488 46.4941 11.9531 46.1934 11.875C45.8926 11.7969 45.5859 11.7578 45.2734 11.7578C44.8242 11.7578 44.4785 11.832 44.2363 11.9805C43.998 12.1289 43.8789 12.332 43.8789 12.5898C43.8789 12.7891 43.9336 12.9531 44.043 13.082C44.1562 13.2109 44.3359 13.332 44.582 13.4453C44.8281 13.5586 45.1523 13.6914 45.5547 13.8438C45.957 13.9922 46.3047 14.1465 46.5977 14.3066C46.8906 14.4629 47.1152 14.6543 47.2715 14.8809C47.4316 15.1035 47.5117 15.3906 47.5117 15.7422ZM9.56641 33.5V24.9336H10.5625V33.5H9.56641ZM15.8125 26.9609C16.5742 26.9609 17.1504 27.1484 17.541 27.5234C17.9316 27.8945 18.127 28.4922 18.127 29.3164V33.5H17.166V29.3809C17.166 28.8457 17.043 28.4453 16.7969 28.1797C16.5547 27.9141 16.1816 27.7812 15.6777 27.7812C14.9668 27.7812 14.4668 27.9824 14.1777 28.3848C13.8887 28.7871 13.7441 29.3711 13.7441 30.1367V33.5H12.7715V27.0781H13.5566L13.7031 28.0039H13.7559C13.8926 27.7773 14.0664 27.5879 14.2773 27.4355C14.4883 27.2793 14.7246 27.1621 14.9863 27.084C15.248 27.002 15.5234 26.9609 15.8125 26.9609ZM22.7031 33.6172C22.125 33.6172 21.6152 33.498 21.1738 33.2598C20.7324 33.0215 20.3887 32.6582 20.1426 32.1699C19.8965 31.6816 19.7734 31.0664 19.7734 30.3242C19.7734 29.5469 19.9023 28.9121 20.1602 28.4199C20.4219 27.9238 20.7812 27.5566 21.2383 27.3184C21.6953 27.0801 22.2148 26.9609 22.7969 26.9609C23.1172 26.9609 23.4258 26.9941 23.7227 27.0605C24.0234 27.123 24.2695 27.2031 24.4609 27.3008L24.168 28.1152C23.9727 28.0371 23.7461 27.9668 23.4883 27.9043C23.2344 27.8418 22.9961 27.8105 22.7734 27.8105C22.3281 27.8105 21.957 27.9062 21.6602 28.0977C21.3672 28.2891 21.1465 28.5703 20.998 28.9414C20.8535 29.3125 20.7812 29.7695 20.7812 30.3125C20.7812 30.832 20.8516 31.2754 20.9922 31.6426C21.1367 32.0098 21.3496 32.291 21.6309 32.4863C21.916 32.6777 22.2715 32.7734 22.6973 32.7734C23.0371 32.7734 23.3438 32.7383 23.6172 32.668C23.8906 32.5938 24.1387 32.5078 24.3613 32.4102V33.2773C24.1465 33.3867 23.9062 33.4707 23.6406 33.5293C23.3789 33.5879 23.0664 33.6172 22.7031 33.6172ZM26.8633 33.5H25.8848V24.3828H26.8633V33.5ZM34.2227 27.0781V33.5H33.4258L33.2852 32.5977H33.2324C33.0996 32.8203 32.9277 33.0078 32.7168 33.1602C32.5059 33.3125 32.2676 33.4258 32.002 33.5C31.7402 33.5781 31.4609 33.6172 31.1641 33.6172C30.6562 33.6172 30.2305 33.5352 29.8867 33.3711C29.543 33.207 29.2832 32.9531 29.1074 32.6094C28.9355 32.2656 28.8496 31.8242 28.8496 31.2852V27.0781H29.834V31.2148C29.834 31.75 29.9551 32.1504 30.1973 32.416C30.4395 32.6777 30.8086 32.8086 31.3047 32.8086C31.7812 32.8086 32.1602 32.7188 32.4414 32.5391C32.7266 32.3594 32.9316 32.0957 33.0566 31.748C33.1816 31.3965 33.2441 30.9668 33.2441 30.459V27.0781H34.2227ZM38.5645 33.6172C37.752 33.6172 37.1074 33.3398 36.6309 32.7852C36.1582 32.2305 35.9219 31.4062 35.9219 30.3125C35.9219 29.207 36.1641 28.373 36.6484 27.8105C37.1328 27.2441 37.7773 26.9609 38.582 26.9609C38.9219 26.9609 39.2188 27.0059 39.4727 27.0957C39.7266 27.1855 39.9453 27.3066 40.1289 27.459C40.3125 27.6074 40.4668 27.7773 40.5918 27.9688H40.6621C40.6465 27.8477 40.6309 27.6816 40.6152 27.4707C40.5996 27.2598 40.5918 27.0879 40.5918 26.9551V24.3828H41.5645V33.5H40.7793L40.6328 32.5859H40.5918C40.4707 32.7773 40.3164 32.9512 40.1289 33.1074C39.9453 33.2637 39.7246 33.3887 39.4668 33.4824C39.2129 33.5723 38.9121 33.6172 38.5645 33.6172ZM38.7168 32.8086C39.4043 32.8086 39.8906 32.6133 40.1758 32.2227C40.4609 31.832 40.6035 31.252 40.6035 30.4824V30.3066C40.6035 29.4902 40.4668 28.8633 40.1934 28.4258C39.9238 27.9883 39.4316 27.7695 38.7168 27.7695C38.1191 27.7695 37.6719 28 37.375 28.4609C37.0781 28.918 36.9297 29.543 36.9297 30.3359C36.9297 31.125 37.0762 31.7344 37.3691 32.1641C37.666 32.5938 38.1152 32.8086 38.7168 32.8086ZM46.0996 26.9609C46.6465 26.9609 47.1152 27.082 47.5059 27.3242C47.8965 27.5664 48.1953 27.9062 48.4023 28.3438C48.6094 28.7773 48.7129 29.2852 48.7129 29.8672V30.4707H44.2773C44.2891 31.2246 44.4766 31.7988 44.8398 32.1934C45.2031 32.5879 45.7148 32.7852 46.375 32.7852C46.7812 32.7852 47.1406 32.748 47.4531 32.6738C47.7656 32.5996 48.0898 32.4902 48.4258 32.3457V33.2012C48.1016 33.3457 47.7793 33.4512 47.459 33.5176C47.1426 33.584 46.7676 33.6172 46.334 33.6172C45.7168 33.6172 45.1777 33.4922 44.7168 33.2422C44.2598 32.9883 43.9043 32.6172 43.6504 32.1289C43.3965 31.6406 43.2695 31.043 43.2695 30.3359C43.2695 29.6445 43.3848 29.0469 43.6152 28.543C43.8496 28.0352 44.1777 27.6445 44.5996 27.3711C45.0254 27.0977 45.5254 26.9609 46.0996 26.9609ZM46.0879 27.7578C45.5684 27.7578 45.1543 27.9277 44.8457 28.2676C44.5371 28.6074 44.3535 29.082 44.2949 29.6914H47.6934C47.6895 29.3086 47.6289 28.9727 47.5117 28.6836C47.3984 28.3906 47.2246 28.1641 46.9902 28.0039C46.7559 27.8398 46.4551 27.7578 46.0879 27.7578ZM52.6504 33.6172C51.8379 33.6172 51.1934 33.3398 50.7168 32.7852C50.2441 32.2305 50.0078 31.4062 50.0078 30.3125C50.0078 29.207 50.25 28.373 50.7344 27.8105C51.2188 27.2441 51.8633 26.9609 52.668 26.9609C53.0078 26.9609 53.3047 27.0059 53.5586 27.0957C53.8125 27.1855 54.0312 27.3066 54.2148 27.459C54.3984 27.6074 54.5527 27.7773 54.6777 27.9688H54.748C54.7324 27.8477 54.7168 27.6816 54.7012 27.4707C54.6855 27.2598 54.6777 27.0879 54.6777 26.9551V24.3828H55.6504V33.5H54.8652L54.7188 32.5859H54.6777C54.5566 32.7773 54.4023 32.9512 54.2148 33.1074C54.0312 33.2637 53.8105 33.3887 53.5527 33.4824C53.2988 33.5723 52.998 33.6172 52.6504 33.6172ZM52.8027 32.8086C53.4902 32.8086 53.9766 32.6133 54.2617 32.2227C54.5469 31.832 54.6895 31.252 54.6895 30.4824V30.3066C54.6895 29.4902 54.5527 28.8633 54.2793 28.4258C54.0098 27.9883 53.5176 27.7695 52.8027 27.7695C52.2051 27.7695 51.7578 28 51.4609 28.4609C51.1641 28.918 51.0156 29.543 51.0156 30.3359C51.0156 31.125 51.1621 31.7344 51.4551 32.1641C51.752 32.5938 52.2012 32.8086 52.8027 32.8086Z" fill="#FF8E01"/>
</svg>
